<svg xmlns="http://www.w3.org/2000/svg" viewBox="0 0 24 24" fill="none" stroke="currentColor" stroke-width="1.25" stroke-linecap="round" stroke-linejoin="round" class="lotus-logo">
  <!-- Central petal -->
  <path d="M12 2C12 2 9 8 9 12C9 16 12 22 12 22C12 22 15 16 15 12C15 8 12 2 12 2Z" />
  <!-- Left inner petal -->
  <path d="M12 6C12 6 7 10 7 13.5C7 17 9.5 20.5 12 21" />
  <!-- Right inner petal -->
  <path d="M12 6C12 6 17 10 17 13.5C17 17 14.5 20.5 12 21" />
  <!-- Left outer petal -->
  <path d="M12 10C12 10 4 12 4 16C4 20 8 20.5 11 20" />
  <!-- Right outer petal -->
  <path d="M12 10C12 10 20 12 20 16C20 20 16 20.5 13 20" />
</svg>