<svg version="1.1" id="Layer_1" xmlns="http://www.w3.org/2000/svg" xmlns:xlink="http://www.w3.org/1999/xlink" x="0px" y="0px"
	 width="100%" viewBox="0 0 1254 1254" enable-background="new 0 0 1254 1254" xml:space="preserve">
<path fill="#000000" opacity="1.000000" stroke="none" 
	d="
M822.000000,1255.000000 
	C548.000000,1255.000000 274.500000,1255.000000 1.000000,1255.000000 
	C1.000000,837.000000 1.000000,419.000000 1.000000,1.000000 
	C419.000000,1.000000 837.000000,1.000000 1255.000000,1.000000 
	C1255.000000,419.000000 1255.000000,837.000000 1255.000000,1255.000000 
	C1110.833374,1255.000000 966.666687,1255.000000 822.000000,1255.000000 
M663.708862,319.783447 
	C658.164978,313.789032 652.776794,307.640808 647.040894,301.836182 
	C638.384827,293.076385 628.055115,293.211212 619.347717,301.914307 
	C593.138794,328.110199 571.594360,357.858551 552.694824,389.606171 
	C549.074707,395.687286 545.720825,401.926941 542.602234,407.458344 
	C528.621704,396.252045 515.234436,384.744873 501.043915,374.332520 
	C480.832092,359.502106 458.822266,347.678772 435.423187,338.590790 
	C424.930450,334.515564 414.860687,338.565613 410.435059,348.541809 
	C397.652435,377.356445 387.811035,407.162811 382.066162,438.163483 
	C378.735870,456.134491 376.635040,474.333313 373.949249,492.645599 
	C373.763306,492.632324 372.947998,492.629150 372.150238,492.509155 
	C344.889587,488.409119 317.519897,486.432465 289.939911,487.957123 
	C279.993652,488.506927 272.116364,495.332214 271.232208,504.705994 
	C270.825562,509.016693 270.511108,513.337158 270.219971,517.657532 
	C266.480652,573.151306 273.021729,627.416260 290.065796,680.352356 
	C301.850830,716.954834 318.822510,750.917358 342.516327,781.381836 
	C374.282104,822.224915 415.126556,850.470886 463.437988,868.124084 
	C520.731018,889.059082 580.215881,897.086914 640.925964,896.251831 
	C690.270081,895.573120 738.805054,888.568604 786.047119,873.926819 
	C823.459167,862.331665 857.836182,844.876770 887.698120,819.231018 
	C927.380310,785.151672 953.908875,742.130615 971.729187,693.490295 
	C986.965759,651.902344 995.230774,608.792603 996.588745,564.541321 
	C997.180603,545.253235 996.197998,525.900574 995.467651,506.594666 
	C995.071228,496.115295 987.997253,488.275299 978.668213,488.144897 
	C961.691345,487.907593 944.683716,487.955292 927.728394,488.739288 
	C915.652039,489.297699 903.640564,491.256927 891.741272,492.575348 
	C890.531128,481.896057 889.479675,471.313019 888.110962,460.771149 
	C883.043091,421.737091 871.930847,384.407379 856.104126,348.433929 
	C853.015503,341.413666 847.560364,337.081085 839.896851,337.113373 
	C835.569092,337.131561 831.040344,338.569794 826.958740,340.239868 
	C790.473267,355.168915 758.003906,376.310455 729.674316,403.762787 
	C728.067566,405.319763 726.416870,406.831360 724.555603,408.581238 
	C707.251526,376.651398 687.485962,347.264557 663.708862,319.783447 
z"/>
<path fill="#FBFBFB" opacity="1.000000" stroke="none" 
	d="
M663.947693,320.044800 
	C687.485962,347.264557 707.251526,376.651398 724.555603,408.581238 
	C726.416870,406.831360 728.067566,405.319763 729.674316,403.762787 
	C758.003906,376.310455 790.473267,355.168915 826.958740,340.239868 
	C831.040344,338.569794 835.569092,337.131561 839.896851,337.113373 
	C847.560364,337.081085 853.015503,341.413666 856.104126,348.433929 
	C871.930847,384.407379 883.043091,421.737091 888.110962,460.771149 
	C889.479675,471.313019 890.531128,481.896057 891.741272,492.575348 
	C903.640564,491.256927 915.652039,489.297699 927.728394,488.739288 
	C944.683716,487.955292 961.691345,487.907593 978.668213,488.144897 
	C987.997253,488.275299 995.071228,496.115295 995.467651,506.594666 
	C996.197998,525.900574 997.180603,545.253235 996.588745,564.541321 
	C995.230774,608.792603 986.965759,651.902344 971.729187,693.490295 
	C953.908875,742.130615 927.380310,785.151672 887.698120,819.231018 
	C857.836182,844.876770 823.459167,862.331665 786.047119,873.926819 
	C738.805054,888.568604 690.270081,895.573120 640.925964,896.251831 
	C580.215881,897.086914 520.731018,889.059082 463.437988,868.124084 
	C415.126556,850.470886 374.282104,822.224915 342.516327,781.381836 
	C318.822510,750.917358 301.850830,716.954834 290.065796,680.352356 
	C273.021729,627.416260 266.480652,573.151306 270.219971,517.657532 
	C270.511108,513.337158 270.825562,509.016693 271.232208,504.705994 
	C272.116364,495.332214 279.993652,488.506927 289.939911,487.957123 
	C317.519897,486.432465 344.889587,488.409119 372.150238,492.509155 
	C372.947998,492.629150 373.763306,492.632324 373.949249,492.645599 
	C376.635040,474.333313 378.735870,456.134491 382.066162,438.163483 
	C387.811035,407.162811 397.652435,377.356445 410.435059,348.541809 
	C414.860687,338.565613 424.930450,334.515564 435.423187,338.590790 
	C458.822266,347.678772 480.832092,359.502106 501.043915,374.332520 
	C515.234436,384.744873 528.621704,396.252045 542.602234,407.458344 
	C545.720825,401.926941 549.074707,395.687286 552.694824,389.606171 
	C571.594360,357.858551 593.138794,328.110199 619.347717,301.914307 
	C628.055115,293.211212 638.384827,293.076385 647.040894,301.836182 
	C652.776794,307.640808 658.164978,313.789032 663.947693,320.044800 
M557.800598,465.403229 
	C496.025391,614.358826 542.715149,752.135376 633.459167,848.823242 
	C674.505859,803.371216 706.123169,752.444336 723.434387,693.309753 
	C738.910767,640.443054 740.653625,586.884033 729.414551,533.086121 
	C717.329651,475.239777 693.384155,422.480743 658.624084,374.700775 
	C650.751831,363.879883 642.170105,353.575134 633.666504,342.715485 
	C601.034424,379.543091 576.215576,420.046631 557.800598,465.403229 
M738.680481,760.208191 
	C722.720337,794.337646 702.161682,825.569946 678.644531,855.307556 
	C694.970886,853.597656 710.992920,851.646851 726.873047,848.881226 
	C759.784668,843.149658 791.596680,833.835999 821.363403,818.291382 
	C867.684387,794.102112 900.652344,757.248901 923.119202,710.581970 
	C946.403198,662.217834 957.196167,610.883179 958.682495,557.440308 
	C958.967346,547.199768 958.723511,536.944458 958.723511,526.812195 
	C957.165771,526.609924 956.678955,526.486084 956.193848,526.492371 
	C891.080322,527.335327 830.227783,542.406067 776.390869,580.620117 
	C774.942383,581.648254 774.104553,584.383057 774.026794,586.362976 
	C773.353760,603.497803 773.682617,620.705322 772.265808,637.770996 
	C768.730713,680.352295 756.755615,720.759949 738.680481,760.208191 
M519.265930,741.265076 
	C499.257996,691.570557 489.878845,640.000549 492.127960,586.418579 
	C492.272675,582.970398 491.133331,581.143494 488.350372,579.238831 
	C444.864227,549.477173 396.657104,533.107666 344.372345,528.357849 
	C332.493530,527.278748 320.554871,526.857910 308.045288,526.097656 
	C308.045288,541.012817 307.393341,554.991699 308.159546,568.892334 
	C311.272827,625.374634 324.578003,679.062378 352.734131,728.643188 
	C378.964600,774.833069 416.806824,807.680481 465.744598,827.853638 
	C495.429932,840.090515 526.437073,847.506470 558.168640,851.988647 
	C567.940430,853.368896 577.761902,854.397034 589.031250,855.764954 
	C559.644897,820.368591 536.237122,783.203369 519.265930,741.265076 
M822.197510,384.622101 
	C792.701111,399.330475 766.810669,418.873566 743.981934,442.604218 
	C741.739319,444.935425 742.169800,446.609924 743.074463,449.128265 
	C748.472656,464.155579 754.230713,479.084320 758.832520,494.358154 
	C763.173767,508.766815 766.237854,523.560242 769.787170,537.875366 
	C783.103882,531.166260 796.477173,523.721924 810.429871,517.597900 
	C824.402588,511.465088 838.954041,506.650940 853.645630,501.110291 
	C852.086975,460.282776 843.328857,420.466431 828.742981,381.622070 
	C826.480103,382.621399 824.661682,383.424377 822.197510,384.622101 
M510.550110,430.947144 
	C488.849091,410.833893 464.815582,394.205597 437.745148,381.548218 
	C423.199036,420.689148 414.390076,460.366119 412.698212,500.927856 
	C427.533875,506.507355 442.091919,511.295990 456.059784,517.428833 
	C469.995117,523.547363 483.339020,531.012939 497.112335,537.973938 
	C497.405396,536.809814 497.821808,535.552551 498.032043,534.261719 
	C502.062836,509.512177 509.412048,485.687073 518.043396,462.216125 
	C520.153381,456.478485 524.806274,450.093811 523.600830,445.149963 
	C522.314148,439.872650 515.475830,435.948944 510.550110,430.947144 
z"/>
<path fill="#010101" opacity="1.000000" stroke="none" 
	d="
M557.923828,465.040771 
	C576.215576,420.046631 601.034424,379.543091 633.666504,342.715485 
	C642.170105,353.575134 650.751831,363.879883 658.624084,374.700775 
	C693.384155,422.480743 717.329651,475.239777 729.414551,533.086121 
	C740.653625,586.884033 738.910767,640.443054 723.434387,693.309753 
	C706.123169,752.444336 674.505859,803.371216 633.459167,848.823242 
	C542.715149,752.135376 496.025391,614.358826 557.923828,465.040771 
z"/>
<path fill="#010101" opacity="1.000000" stroke="none" 
	d="
M738.820312,759.858704 
	C756.755615,720.759949 768.730713,680.352295 772.265808,637.770996 
	C773.682617,620.705322 773.353760,603.497803 774.026794,586.362976 
	C774.104553,584.383057 774.942383,581.648254 776.390869,580.620117 
	C830.227783,542.406067 891.080322,527.335327 956.193848,526.492371 
	C956.678955,526.486084 957.165771,526.609924 958.723511,526.812195 
	C958.723511,536.944458 958.967346,547.199768 958.682495,557.440308 
	C957.196167,610.883179 946.403198,662.217834 923.119202,710.581970 
	C900.652344,757.248901 867.684387,794.102112 821.363403,818.291382 
	C791.596680,833.835999 759.784668,843.149658 726.873047,848.881226 
	C710.992920,851.646851 694.970886,853.597656 678.644531,855.307556 
	C702.161682,825.569946 722.720337,794.337646 738.820312,759.858704 
z"/>
<path fill="#010101" opacity="1.000000" stroke="none" 
	d="
M519.437500,741.607239 
	C536.237122,783.203369 559.644897,820.368591 589.031250,855.764954 
	C577.761902,854.397034 567.940430,853.368896 558.168640,851.988647 
	C526.437073,847.506470 495.429932,840.090515 465.744598,827.853638 
	C416.806824,807.680481 378.964600,774.833069 352.734131,728.643188 
	C324.578003,679.062378 311.272827,625.374634 308.159546,568.892334 
	C307.393341,554.991699 308.045288,541.012817 308.045288,526.097656 
	C320.554871,526.857910 332.493530,527.278748 344.372345,528.357849 
	C396.657104,533.107666 444.864227,549.477173 488.350372,579.238831 
	C491.133331,581.143494 492.272675,582.970398 492.127960,586.418579 
	C489.878845,640.000549 499.257996,691.570557 519.437500,741.607239 
z"/>
<path fill="#020202" opacity="1.000000" stroke="none" 
	d="
M822.520386,384.424744 
	C824.661682,383.424377 826.480103,382.621399 828.742981,381.622070 
	C843.328857,420.466431 852.086975,460.282776 853.645630,501.110291 
	C838.954041,506.650940 824.402588,511.465088 810.429871,517.597900 
	C796.477173,523.721924 783.103882,531.166260 769.787170,537.875366 
	C766.237854,523.560242 763.173767,508.766815 758.832520,494.358154 
	C754.230713,479.084320 748.472656,464.155579 743.074463,449.128265 
	C742.169800,446.609924 741.739319,444.935425 743.981934,442.604218 
	C766.810669,418.873566 792.701111,399.330475 822.520386,384.424744 
z"/>
<path fill="#020202" opacity="1.000000" stroke="none" 
	d="
M510.805542,431.190735 
	C515.475830,435.948944 522.314148,439.872650 523.600830,445.149963 
	C524.806274,450.093811 520.153381,456.478485 518.043396,462.216125 
	C509.412048,485.687073 502.062836,509.512177 498.032043,534.261719 
	C497.821808,535.552551 497.405396,536.809814 497.112335,537.973938 
	C483.339020,531.012939 469.995117,523.547363 456.059784,517.428833 
	C442.091919,511.295990 427.533875,506.507355 412.698212,500.927856 
	C414.390076,460.366119 423.199036,420.689148 437.745148,381.548218 
	C464.815582,394.205597 488.849091,410.833893 510.805542,431.190735 
z"/>
</svg>